<svg width="129" height="76" viewBox="0 0 129 76" fill="none" xmlns="http://www.w3.org/2000/svg">
<path d="M13.42 37.4C10.4133 37.4 7.90166 36.8134 5.885 35.64C3.86834 34.43 2.38333 32.835 1.42999 30.855C0.476667 28.8384 0 26.6384 0 24.255C0 21.5784 0.55 19.2317 1.65 17.215C2.78667 15.1984 4.34501 13.6584 6.32501 12.595C8.30501 11.495 10.5416 10.945 13.035 10.945C16.9216 10.945 19.8 12.0267 21.67 14.19C23.5766 16.3167 24.53 19.3234 24.53 23.21C24.53 24.2 24.475 25.2267 24.365 26.29H6.215C6.61833 28.5267 7.40667 30.14 8.58 31.13C9.79003 32.12 11.4583 32.615 13.585 32.615C15.345 32.615 16.7933 32.4684 17.93 32.175C19.0666 31.8817 20.1116 31.4784 21.065 30.965L22.88 35.2C21.9633 35.7867 20.7166 36.3 19.14 36.74C17.5633 37.18 15.6566 37.4 13.42 37.4ZM18.755 22.165C18.7916 19.8917 18.2966 18.2967 17.27 17.38C16.2433 16.4267 14.7766 15.95 12.87 15.95C9.02 15.95 6.80166 18.0217 6.215 22.165H18.755Z" fill="white"/>
<path d="M25.6424 11.605H32.4074L37.8524 22.99L39.6124 27.555L41.3724 22.99L46.7624 11.605H53.3624L40.1074 36.85H38.9524L25.6424 11.605Z" fill="white"/>
<path d="M67.3479 37.4C64.3412 37.4 61.8296 36.8134 59.8129 35.64C57.7962 34.43 56.3112 32.835 55.3579 30.855C54.4046 28.8384 53.9279 26.6384 53.9279 24.255C53.9279 21.5784 54.4779 19.2317 55.5779 17.215C56.7146 15.1984 58.2729 13.6584 60.2529 12.595C62.2329 11.495 64.4696 10.945 66.9629 10.945C70.8496 10.945 73.7279 12.0267 75.5979 14.19C77.5046 16.3167 78.4579 19.3234 78.4579 23.21C78.4579 24.2 78.4029 25.2267 78.2929 26.29H60.1429C60.5462 28.5267 61.3346 30.14 62.5079 31.13C63.7179 32.12 65.3862 32.615 67.5129 32.615C69.2729 32.615 70.7212 32.4684 71.8579 32.175C72.9946 31.8817 74.0396 31.4784 74.9929 30.965L76.8079 35.2C75.8912 35.7867 74.6446 36.3 73.0679 36.74C71.4912 37.18 69.5846 37.4 67.3479 37.4ZM72.6829 22.165C72.7196 19.8917 72.2246 18.2967 71.1979 17.38C70.1712 16.4267 68.7046 15.95 66.7979 15.95C62.9479 15.95 60.7296 18.0217 60.1429 22.165H72.6829Z" fill="white"/>
<path d="M83.5854 11.605H89.4154L89.4704 16.225C90.167 14.685 91.267 13.42 92.7704 12.43C94.2737 11.44 96.0337 10.945 98.0504 10.945C100.654 10.945 102.652 11.495 104.045 12.595C105.439 13.6584 106.374 15.1617 106.85 17.105C107.327 19.0484 107.565 21.5784 107.565 24.695V36.85H101.625V24.86C101.625 21.67 101.314 19.3784 100.69 17.985C100.067 16.555 98.7837 15.84 96.8404 15.84C95.7404 15.84 94.622 16.1884 93.4854 16.885C92.3487 17.545 91.3954 18.5167 90.6254 19.8C89.892 21.0834 89.5254 22.5867 89.5254 24.31V36.85H83.5854V11.605Z" fill="white"/>
<path d="M116.321 16.445H111.866V11.605H116.321V1.32L122.316 0V11.605H128.146V16.445H122.316V36.85H116.321V16.445Z" fill="white"/>
<path d="M1.18979 53.8789H6.30819V74.8552H1.18979V53.8789ZM3.70329 49.9487C2.75883 49.9487 1.96669 49.6288 1.32689 48.989C0.687085 48.3492 0.367188 47.557 0.367188 46.6126C0.367188 45.7595 0.687085 45.0283 1.32689 44.419C1.96669 43.8096 2.75883 43.505 3.70329 43.505C4.61729 43.505 5.39419 43.8096 6.03399 44.419C6.67379 45.0283 6.99369 45.7595 6.99369 46.6126C6.99369 47.557 6.67379 48.3492 6.03399 48.989C5.42466 49.6288 4.64776 49.9487 3.70329 49.9487Z" fill="white"/>
<path d="M8.89167 53.8789H14.5127L19.037 63.3388L20.4994 67.1319L21.9618 63.3388L26.4404 53.8789H31.9244L20.9107 74.8552H19.951L8.89167 53.8789Z" fill="white"/>
<path d="M43.5451 75.3122C41.0468 75.3122 38.9599 74.8247 37.2842 73.8498C35.6085 72.8444 34.3746 71.5191 33.5825 69.8739C32.7904 68.1982 32.3943 66.3702 32.3943 64.3899C32.3943 62.1658 32.8513 60.2159 33.7653 58.5403C34.7098 56.8646 36.0046 55.585 37.6498 54.7015C39.295 53.7875 41.1535 53.3305 43.2252 53.3305C46.4547 53.3305 48.8463 54.2292 50.4001 56.0268C51.9844 57.7938 52.7765 60.2921 52.7765 63.5216C52.7765 64.3442 52.7308 65.1972 52.6394 66.0808H37.5584C37.8935 67.9392 38.5486 69.2798 39.5235 70.1024C40.5289 70.925 41.9151 71.3363 43.6822 71.3363C45.1446 71.3363 46.348 71.2144 47.2925 70.9707C48.237 70.7269 49.1053 70.3918 49.8974 69.9653L51.4055 73.4842C50.6438 73.9716 49.608 74.3982 48.2979 74.7638C46.9878 75.1294 45.4036 75.3122 43.5451 75.3122ZM47.978 62.6533C48.0085 60.7643 47.5972 59.439 46.7441 58.6774C45.891 57.8852 44.6724 57.4892 43.0881 57.4892C39.8891 57.4892 38.0459 59.2105 37.5584 62.6533H47.978Z" fill="white"/>
<path d="M64.2575 75.3122C62.7951 75.3122 61.2718 75.1294 59.6875 74.7638C58.1337 74.3677 57.0217 73.9107 56.3514 73.3928L57.9966 69.5083C59.8246 70.7879 61.9116 71.4277 64.2575 71.4277C66.6035 71.4277 67.7764 70.7422 67.7764 69.3712C67.7764 68.7618 67.5327 68.2896 67.0452 67.9545C66.5578 67.6193 65.6895 67.2233 64.4403 66.7663L62.7037 66.1265C60.8757 65.3953 59.4286 64.527 58.3622 63.5216C57.2959 62.4857 56.7627 61.1299 56.7627 59.4543C56.7627 57.5349 57.5092 56.042 59.002 54.9757C60.5254 53.8789 62.5514 53.3305 65.0801 53.3305C66.3293 53.3305 67.548 53.4676 68.7362 53.7418C69.9548 54.016 70.884 54.3663 71.5238 54.7929L69.7415 58.7231C69.3455 58.327 68.7057 57.9919 67.8221 57.7177C66.9691 57.413 66.0094 57.2607 64.943 57.2607C62.7799 57.2607 61.6983 57.9157 61.6983 59.2258C61.6983 59.957 61.9878 60.5206 62.5666 60.9167C63.1455 61.2823 64.09 61.6936 65.4 62.1506C65.5219 62.181 65.9941 62.3486 66.8167 62.6533C68.7666 63.4149 70.2138 64.2832 71.1582 65.2582C72.1027 66.2331 72.5749 67.4822 72.5749 69.0056C72.5749 71.0773 71.7828 72.6463 70.1985 73.7127C68.6447 74.779 66.6644 75.3122 64.2575 75.3122Z" fill="white"/>
<path d="M80.1679 75.3122C79.2539 75.3122 78.477 75.0075 77.8372 74.3982C77.1974 73.7584 76.8775 72.9815 76.8775 72.0675C76.8775 71.123 77.1822 70.3461 77.7915 69.7368C78.4313 69.097 79.2235 68.7771 80.1679 68.7771C81.1124 68.7771 81.8893 69.097 82.4986 69.7368C83.1384 70.3461 83.4583 71.123 83.4583 72.0675C83.4583 72.9815 83.1384 73.7584 82.4986 74.3982C81.8893 75.0075 81.1124 75.3122 80.1679 75.3122Z" fill="white"/>
<path d="M89.5371 53.8789H94.6555V74.8552H89.5371V53.8789ZM92.0506 49.9487C91.1062 49.9487 90.314 49.6288 89.6742 48.989C89.0344 48.3492 88.7145 47.557 88.7145 46.6126C88.7145 45.7595 89.0344 45.0283 89.6742 44.419C90.314 43.8096 91.1062 43.505 92.0506 43.505C92.9646 43.505 93.7415 43.8096 94.3813 44.419C95.0211 45.0283 95.341 45.7595 95.341 46.6126C95.341 47.557 95.0211 48.3492 94.3813 48.989C93.772 49.6288 92.9951 49.9487 92.0506 49.9487Z" fill="white"/>
<path d="M109.852 75.3122C107.963 75.3122 106.211 74.8704 104.597 73.9869C103.012 73.0729 101.733 71.7933 100.758 70.1481C99.8131 68.4724 99.3412 66.5225 99.3412 64.2985C99.3412 60.9776 100.27 58.327 102.129 56.3467C103.987 54.3359 106.501 53.3305 109.669 53.3305C111.436 53.3305 113.051 53.7722 114.514 54.6558C115.976 55.5088 116.966 56.5447 117.484 57.7634L117.256 54.1988V41.2657H122.1V74.8552H117.393L117.301 71.1535C116.783 72.2503 115.839 73.2252 114.468 74.0783C113.097 74.9009 111.558 75.3122 109.852 75.3122ZM110.675 71.1535C112.411 71.1535 113.874 70.5594 115.062 69.3712C116.25 68.1525 116.844 66.5682 116.844 64.6184V64.2985C116.844 62.9884 116.57 61.8154 116.022 60.7796C115.473 59.7437 114.727 58.9363 113.782 58.3575C112.838 57.7786 111.802 57.4892 110.675 57.4892C108.725 57.4892 107.217 58.129 106.15 59.4086C105.084 60.6577 104.551 62.2877 104.551 64.2985C104.551 66.3397 105.069 68.0002 106.105 69.2798C107.171 70.5289 108.694 71.1535 110.675 71.1535Z" fill="white"/>
</svg>
