<svg width="64" height="64" viewBox="0 0 64 64" fill="none" xmlns="http://www.w3.org/2000/svg">
<circle cx="32" cy="32" r="31" stroke="white" stroke-width="2"/>
<path d="M20.6509 44C18.0406 44 15.86 43.49 14.1092 42.4699C12.3584 41.4179 11.0691 40.0312 10.2415 38.3098C9.41383 36.5565 9 34.6439 9 32.5717C9 30.2447 9.47749 28.2045 10.4325 26.4511C11.4193 24.6979 12.7722 23.359 14.4912 22.4345C16.2102 21.4782 18.1519 21 20.3167 21C23.6909 21 26.1898 21.9404 27.8133 23.8212C29.4686 25.6702 30.2963 28.2842 30.2963 31.6632C30.2963 32.5239 30.2485 33.4165 30.153 34.341H14.3957C14.7459 36.2855 15.4303 37.6881 16.4489 38.5489C17.4994 39.4096 18.9478 39.8399 20.7941 39.8399C22.3221 39.8399 23.5795 39.7125 24.5664 39.4574C25.5531 39.2024 26.4604 38.8518 27.2881 38.4054L28.8638 42.0873C28.068 42.5974 26.9856 43.0437 25.6168 43.4262C24.248 43.8087 22.5927 44 20.6509 44ZM25.2826 30.7547C25.3144 28.7783 24.8846 27.3916 23.9934 26.5946C23.102 25.7658 21.8287 25.3514 20.1734 25.3514C16.8309 25.3514 14.905 27.1525 14.3957 30.7547H25.2826Z" fill="white"/>
<path d="M31.1481 21.8519H36.9691L41.6543 31.4561L43.1687 35.307L44.6831 31.4561L49.321 21.8519H55L43.5946 43.1481H42.6008L31.1481 21.8519Z" fill="white"/>
</svg>
